<?xml version="1.0" standalone="no"?>
<!DOCTYPE svg PUBLIC "-//W3C//DTD SVG 20010904//EN"
 "http://www.w3.org/TR/2001/REC-SVG-20010904/DTD/svg10.dtd">
<svg version="1.0" xmlns="http://www.w3.org/2000/svg"
 width="349.000000pt" height="379.000000pt" viewBox="0 0 349.000000 379.000000"
 preserveAspectRatio="xMidYMid meet">

<g transform="translate(0.000000,379.000000) scale(0.100000,-0.100000)"
fill="#000000" stroke="none">
<path d="M1545 3514 c-346 -52 -625 -174 -877 -383 -235 -195 -412 -456 -507
-748 -61 -185 -76 -288 -76 -503 1 -206 19 -325 76 -501 33 -103 136 -318 171
-361 l23 -27 685 674 c377 371 688 673 691 672 4 -1 318 -308 698 -682 381
-374 696 -681 701 -683 10 -4 102 148 142 235 48 105 96 257 121 378 31 157
31 452 -2 605 -141 663 -631 1152 -1301 1301 -76 17 -137 21 -305 24 -115 2
-223 1 -240 -1z"/>
<path d="M1052 1612 c-670 -663 -674 -667 -653 -686 20 -18 25 -14 671 625
358 354 654 645 658 646 4 2 308 -289 677 -646 656 -635 695 -669 695 -616 0
11 -1362 1346 -1372 1345 -2 -1 -306 -301 -676 -668z"/>
<path d="M1210 1119 c-428 -421 -508 -504 -498 -517 17 -20 152 -110 222 -148
l60 -32 362 356 c200 197 368 357 373 357 6 0 177 -163 380 -363 l370 -363 58
30 c57 28 243 147 243 154 0 9 -1042 1027 -1051 1027 -5 0 -238 -226 -519
-501z"/>
</g>
</svg>
